
<svg id="visual" viewBox="0 0 900 600" width="900" height="600" xmlns="http://www.w3.org/2000/svg" xmlns:xlink="http://www.w3.org/1999/xlink" version="1.1"><rect x="0" y="0" width="900" height="600" fill="#ffffff"></rect><defs><linearGradient id="grad1_0" x1="33.3%" y1="100%" x2="100%" y2="0%"><stop offset="20%" stop-color="#ffffff" stop-opacity="1"></stop><stop offset="80%" stop-color="#ffffff" stop-opacity="1"></stop></linearGradient></defs><defs><linearGradient id="grad2_0" x1="0%" y1="100%" x2="66.7%" y2="0%"><stop offset="20%" stop-color="#ffffff" stop-opacity="1"></stop><stop offset="80%" stop-color="#ffffff" stop-opacity="1"></stop></linearGradient></defs><g transform="translate(900, 600)"><path d="M-378.6 0C-353.9 -32.5 -329.2 -65 -321.5 -104.4C-313.8 -143.9 -323 -190.3 -306.3 -222.5C-289.5 -254.8 -246.7 -272.9 -209.8 -288.8C-173 -304.7 -142.1 -318.3 -108.2 -332.9C-74.2 -347.5 -37.1 -363 0 -378.6L0 0Z" fill="#0be1a4"></path></g><g transform="translate(0, 0)"><path d="M378.6 0C357.5 32.3 336.4 64.6 330 107.2C323.6 149.8 332 202.7 304.2 221C276.4 239.3 212.4 222.9 178.7 245.9C145 269 141.7 331.4 117 360.1C92.3 388.7 46.1 383.7 0 378.6L0 0Z" fill="#0be1a4"></path></g></svg>