<?xml version="1.0" standalone="no"?>
<!DOCTYPE svg PUBLIC "-//W3C//DTD SVG 20010904//EN"
 "http://www.w3.org/TR/2001/REC-SVG-20010904/DTD/svg10.dtd">
<svg version="1.0" xmlns="http://www.w3.org/2000/svg"
 width="820.000000pt" height="820.000000pt" viewBox="0 0 820.000000 820.000000"
 preserveAspectRatio="xMidYMid meet">
<metadata>
Created by potrace 1.14, written by Peter Selinger 2001-2017
</metadata>
<g transform="translate(0.000000,820.000000) scale(0.100000,-0.100000)"
fill="#000000" stroke="none">
<path d="M4088 7005 c-2 -2 -36 -6 -75 -10 -40 -3 -83 -8 -95 -11 -13 -2 -43
-7 -68 -10 -39 -5 -149 -27 -202 -40 -39 -9 -64 -15 -73 -18 -5 -2 -23 -6 -40
-10 -16 -4 -37 -10 -45 -12 -8 -3 -17 -6 -20 -6 -13 -3 -227 -79 -245 -88 -11
-5 -47 -20 -80 -34 -33 -13 -107 -48 -165 -76 -58 -29 -107 -51 -109 -50 -2 1
-7 -2 -10 -7 -6 -8 -30 -22 -101 -60 -19 -10 -37 -21 -40 -24 -3 -3 -12 -9
-20 -13 -41 -19 -214 -136 -218 -148 -2 -4 -10 -8 -18 -8 -8 0 -14 -4 -14 -10
0 -5 -7 -10 -15 -10 -8 0 -15 -4 -15 -8 0 -4 -24 -26 -52 -47 -64 -48 -285
-267 -355 -350 -173 -208 -339 -485 -438 -735 -20 -52 -41 -104 -45 -115 -15
-36 -51 -152 -56 -181 -3 -15 -9 -35 -15 -46 -5 -10 -7 -18 -5 -18 3 0 2 -10
-3 -23 -5 -13 -12 -39 -15 -58 -3 -19 -8 -45 -11 -59 -40 -191 -66 -593 -42
-663 11 -33 39 -42 112 -32 30 3 57 6 60 6 2 0 19 5 37 10 18 5 44 11 58 14
14 3 36 7 50 11 59 14 117 26 149 30 19 2 37 7 42 10 10 6 127 15 230 18 111
3 143 30 154 126 11 92 26 207 30 230 66 347 208 650 422 910 41 49 211 220
257 259 49 40 199 147 236 167 19 10 49 29 67 40 51 34 236 112 331 140 202
61 388 87 597 86 179 -1 280 -14 443 -57 64 -16 242 -96 317 -142 66 -40 193
-144 251 -205 186 -197 251 -448 178 -681 -30 -96 -102 -210 -176 -277 -58
-54 -62 -57 -109 -80 -24 -13 -47 -28 -51 -34 -4 -6 -8 -7 -8 -3 0 4 -8 3 -18
-2 -11 -6 -30 -12 -43 -15 -13 -2 -44 -9 -69 -15 -53 -12 -163 -8 -235 9 -45
10 -173 68 -202 92 -15 12 -54 6 -85 -14 -28 -18 -51 -74 -50 -117 2 -57 6
-69 38 -137 35 -75 109 -157 200 -219 27 -19 54 -38 59 -43 6 -4 33 -19 60
-32 28 -13 52 -26 55 -30 4 -5 104 -40 133 -46 4 -1 9 -3 12 -4 11 -6 109 -22
155 -26 77 -7 240 0 280 11 8 2 33 7 55 9 22 3 59 12 83 20 23 8 42 13 42 10
0 -2 10 1 23 8 12 6 29 13 37 15 33 5 199 93 265 141 39 27 99 78 135 113 63
61 170 191 170 205 0 4 6 15 14 23 50 55 154 310 180 441 3 14 7 34 10 46 34
155 25 414 -20 588 -9 34 -17 68 -19 76 -7 33 -81 208 -107 253 -15 26 -28 50
-28 53 0 8 -95 146 -119 173 -11 13 -21 27 -21 31 0 3 -48 56 -108 116 -90 93
-256 235 -328 281 -10 7 -45 31 -76 53 -32 21 -58 36 -58 32 0 -4 -4 -2 -8 4
-10 14 -212 115 -287 143 -33 13 -69 27 -80 32 -16 7 -86 28 -150 45 -91 25
-210 48 -355 69 -49 7 -506 16 -512 10z"/>
<path d="M6385 6599 c-187 -71 -200 -309 -20 -385 36 -15 116 -21 155 -11 136
33 207 177 145 297 -51 99 -169 141 -280 99z"/>
<path d="M6928 6124 c-2 -1 -15 -5 -30 -8 -129 -23 -213 -176 -151 -274 53
-83 148 -117 256 -91 63 15 139 86 154 145 21 86 -27 177 -111 209 -39 15
-111 27 -118 19z"/>
<path d="M7385 5989 c-86 -23 -128 -132 -79 -207 39 -59 172 -55 228 7 24 27
30 95 11 131 -27 53 -100 84 -160 69z"/>
<path d="M3765 5781 c-60 -21 -136 -48 -167 -60 -32 -12 -60 -22 -63 -22 -5 1
-116 -57 -190 -99 -121 -67 -280 -200 -394 -326 -56 -62 -151 -190 -151 -203
0 -5 -4 -11 -9 -13 -27 -10 -206 -388 -184 -388 3 0 1 -6 -5 -12 -9 -12 -40
-137 -57 -228 -4 -19 -9 -116 -11 -216 -6 -243 -9 -240 186 -220 36 4 119 9
185 12 83 3 124 9 134 18 16 16 17 42 7 156 -15 158 -7 309 21 435 4 17 7 32
8 35 4 27 30 107 36 115 5 5 9 16 9 24 0 22 103 225 137 270 7 9 33 45 59 80
116 156 313 329 464 409 57 30 258 112 275 112 22 0 57 34 50 50 -5 13 -70 63
-85 65 -3 1 -18 8 -35 17 -60 31 -102 29 -220 -11z"/>
<path d="M7651 5664 c-20 -14 -22 -22 -18 -63 3 -25 13 -73 21 -106 18 -69 28
-149 29 -218 0 -69 -16 -82 -107 -83 -129 -2 -206 -63 -212 -170 -5 -89 34
-143 127 -174 81 -28 148 -4 230 81 79 82 121 198 121 337 0 107 -23 245 -54
321 -6 14 -12 32 -14 39 -4 21 -48 51 -74 52 -14 0 -36 -7 -49 -16z"/>
<path d="M4448 5505 c-2 -1 -32 -5 -68 -8 -64 -6 -85 -10 -145 -24 -16 -4 -32
-7 -35 -8 -30 -6 -172 -59 -186 -70 -10 -8 -25 -15 -32 -15 -7 0 -38 -16 -68
-35 -30 -19 -59 -35 -64 -35 -6 0 -10 -4 -10 -10 0 -5 -5 -10 -11 -10 -14 0
-146 -108 -197 -162 -156 -165 -259 -349 -308 -553 -36 -147 -37 -370 -3 -485
6 -19 12 -39 13 -45 2 -5 4 -14 4 -18 1 -25 59 -67 106 -77 102 -24 207 -60
283 -99 83 -43 135 -72 143 -82 3 -3 28 -22 55 -43 74 -55 186 -166 255 -254
77 -96 73 -92 143 -185 128 -171 277 -287 437 -342 3 -1 12 -4 20 -8 28 -10
85 -23 150 -34 86 -13 362 -5 389 12 4 2 27 6 51 10 25 3 63 11 85 17 22 6 46
13 53 14 7 1 64 19 125 40 136 45 259 99 390 173 56 31 198 124 224 146 6 5
30 23 52 39 23 17 41 33 41 38 0 4 4 8 10 8 19 0 258 232 321 312 19 23 44 53
56 66 26 26 29 54 9 74 -14 14 -73 16 -131 4 -16 -3 -41 -8 -55 -11 -14 -2
-36 -7 -50 -10 -14 -3 -35 -7 -48 -10 -13 -2 -31 -6 -40 -9 -9 -3 -33 -7 -52
-10 -19 -2 -57 -10 -85 -16 -27 -6 -61 -13 -75 -15 -14 -3 -45 -9 -70 -15 -25
-6 -56 -13 -70 -15 -14 -2 -83 -15 -155 -30 -231 -46 -421 -77 -570 -90 -38
-4 -86 -8 -105 -10 -68 -6 -256 -8 -275 -2 -11 3 -42 8 -70 12 -227 28 -418
96 -590 210 -86 56 -241 216 -306 315 -99 151 -139 280 -134 431 1 46 4 86 5
89 2 3 4 10 5 15 11 64 58 172 104 240 68 100 214 207 325 238 80 22 203 17
276 -13 50 -20 168 -92 180 -111 3 -4 17 -10 31 -14 38 -9 109 27 139 72 34
50 36 150 3 205 -61 104 -155 166 -290 193 -32 6 -180 14 -185 10z"/>
<path d="M6995 5253 c-111 -31 -143 -186 -50 -247 36 -24 117 -32 157 -16 120
48 138 167 36 243 -27 20 -105 31 -143 20z"/>
<path d="M7671 4439 c-19 -6 -57 -25 -85 -43 -54 -35 -207 -185 -217 -214 -4
-9 2 -39 13 -67 11 -27 21 -59 23 -70 20 -122 124 -235 251 -275 192 -59 438
45 517 219 33 71 30 179 -5 251 -50 101 -133 170 -239 198 -48 13 -216 13
-258 1z"/>
<path d="M6600 4408 c-60 -31 -90 -77 -90 -138 0 -41 5 -53 38 -89 59 -67 150
-77 238 -25 49 28 83 88 78 136 -13 107 -157 171 -264 116z"/>
<path d="M7185 4036 c-31 -18 -38 -27 -74 -96 -113 -216 -215 -354 -396 -533
-110 -109 -336 -287 -363 -287 -6 0 -12 -4 -14 -8 -6 -15 -201 -120 -308 -165
-19 -8 -64 -27 -100 -42 -77 -32 -77 -32 -84 -68 -10 -57 30 -117 100 -147 51
-22 189 -25 246 -4 21 7 39 13 41 13 5 -1 48 15 127 48 275 113 559 303 770
513 124 125 149 155 235 281 78 115 86 154 47 221 -13 23 -46 86 -73 138 -26
53 -56 103 -66 112 -29 27 -66 37 -88 24z"/>
<path d="M2770 3680 c-30 -5 -80 -11 -110 -15 -30 -4 -57 -8 -60 -10 -3 -1
-25 -6 -50 -9 -55 -8 -100 -15 -120 -21 -8 -2 -37 -7 -65 -11 -27 -3 -59 -8
-70 -10 -11 -3 -36 -7 -55 -10 -19 -2 -46 -7 -60 -10 -58 -11 -69 -13 -106
-18 -22 -4 -75 -13 -119 -21 -44 -8 -93 -17 -110 -20 -16 -2 -40 -7 -51 -9
-12 -2 -37 -7 -55 -10 -32 -5 -52 -9 -109 -21 -14 -3 -43 -8 -65 -11 -22 -3
-116 -21 -210 -40 -93 -19 -183 -37 -199 -39 -15 -2 -35 -7 -45 -9 -9 -3 -29
-8 -46 -11 -16 -2 -40 -7 -52 -10 -13 -3 -33 -7 -45 -10 -13 -3 -34 -7 -48
-10 -101 -19 -205 -59 -237 -91 -8 -7 -20 -17 -27 -21 -23 -14 -65 -79 -82
-124 -30 -86 -22 -221 21 -340 9 -24 17 -48 19 -54 7 -25 41 -85 48 -85 4 0 8
-5 8 -11 0 -35 168 -196 249 -240 16 -8 40 -22 53 -31 12 -8 70 -34 128 -57
58 -23 114 -46 125 -51 11 -5 47 -18 80 -30 33 -11 69 -24 80 -29 32 -14 298
-101 323 -106 12 -2 28 -7 35 -12 6 -4 21 -9 31 -10 11 -2 40 -10 65 -19 45
-15 183 -55 326 -95 39 -10 104 -28 145 -40 189 -52 237 -64 289 -75 14 -3 28
-7 33 -10 4 -3 18 -7 30 -10 39 -9 53 -12 53 -14 0 -1 7 -3 15 -5 23 -6 58
-15 78 -19 105 -27 134 -30 160 -16 15 9 63 69 109 140 113 172 115 174 144
167 25 -7 342 -262 472 -380 121 -110 370 -242 512 -272 11 -2 29 -6 40 -8 47
-11 165 -27 225 -32 122 -10 159 -14 187 -20 15 -3 44 -8 63 -10 19 -3 55 -7
80 -10 74 -10 92 -12 155 -19 33 -4 76 -9 95 -11 19 -3 60 -7 90 -10 30 -3 66
-7 80 -10 14 -2 52 -6 85 -10 33 -3 76 -8 95 -11 36 -5 59 -7 170 -19 36 -3
76 -9 90 -11 14 -3 54 -7 90 -10 36 -3 81 -9 102 -13 39 -9 178 -7 218 3 14 3
39 9 55 12 65 14 166 83 210 142 45 61 63 116 59 177 -4 69 -26 116 -80 170
-65 66 -169 108 -319 129 -22 3 -51 8 -64 10 -14 3 -47 8 -75 11 -28 3 -58 8
-66 10 -8 2 -33 7 -55 10 -23 3 -52 7 -65 10 -14 3 -45 7 -70 10 -25 3 -70 10
-100 15 -91 16 -115 19 -151 24 -93 12 -145 36 -211 97 -25 24 -97 91 -159
149 -62 58 -140 131 -173 163 -351 337 -548 529 -816 794 -366 362 -346 344
-430 398 -99 64 -233 116 -360 140 -54 11 -369 14 -430 5z"/>
</g>
</svg>
