<svg
        width="201"
        height="240"
        viewBox="0 0 201 240"
        fill="none"
        xmlns="http://www.w3.org/2000/svg"
>
    <g opacity="0.3">
        <path
                d="M140 49.24C134.532 49.2347 129.289 47.0609 125.422 43.1953C121.554 39.3297 119.378 34.0881 119.37 28.62V0H27.2C20.063 0 13.2184 2.83517 8.17175 7.88177C3.12515 12.9284 0.290039 19.773 0.290039 26.91V189.13C0.297991 196.261 3.13695 203.097 8.18298 208.135C13.229 213.174 20.0691 216.003 27.2 216H137.8C144.937 216 151.782 213.165 156.828 208.118C161.875 203.072 164.71 196.227 164.71 189.09V49.24H140Z"
                fill="#6E6E6E"
        />
    </g>
    <path
            d="M164.71 49.24H140C134.532 49.2347 129.289 47.0609 125.422 43.1953C121.554 39.3297 119.378 34.0881 119.37 28.62V0L164.71 49.24Z"
            fill="#6E6E6E"
    />
</svg>